<?xml version="1.0" encoding="UTF-8"?>
<svg width="479px" height="376px" viewBox="0 0 479 376" version="1.1" xmlns="http://www.w3.org/2000/svg" xmlns:xlink="http://www.w3.org/1999/xlink">
  <title>Contact Us_About Us_Community Development</title>
  <desc>Created with Sketch.</desc>
  <defs>
    <path d="M0.0811105194,5.15190449 C0.0811105194,9.20789029 1.83850511,16.7790638 5.35329428,27.865425 C4.00145229,29.7469517 4.00145229,41.9149091 5.35329428,64.3692971 C11.0310306,67.062021 13.5995304,68.1379839 13.0587936,67.5971858 C12.5180568,67.0563877 11.1662148,65.7043925 9.00326765,63.5412 C10.8958464,41.1093452 11.8421358,28.9470212 11.8421358,27.0542278 C11.8421358,24.2150377 11.4365832,3.93510875 7.78660986,1.09591869 C5.35329428,-0.796874679 2.7847945,0.555120586 0.0811105194,5.15190449 Z" id="path-1"></path>
  </defs>
  <g id="6.0-Contact-Us" stroke="none" stroke-width="1" fill="none" fill-rule="evenodd">
    <g id="6.1-CONT_About-Us_CEO" transform="translate(-720.000000, -929.000000)">
      <g id="Group-3" transform="translate(0.000000, 842.000000)">
        <g id="Contact-Us_About-Us_Community-Development" transform="translate(720.000000, 80.000000)">
          <g id="Group-35" transform="translate(320.392006, 356.043572)">
            <polygon id="Path-9" fill="#626262" points="0 12.8695234 0 16.0869042 38.685755 16.0869042 126.534657 3.21738084 126.534657 0"></polygon>
            <polygon id="Rectangle" fill="#818181" points="87.8489021 0 126.534657 0 38.685755 12.8695234 0 12.8695234"></polygon>
          </g>
          <g id="Group-35-Copy" transform="translate(269.616953, 334.326252)">
            <polygon id="Path-9" fill="#626262" points="0 12.8695234 0 16.0869042 38.685755 16.0869042 126.534657 3.21738084 126.534657 0"></polygon>
            <polygon id="Rectangle" fill="#818181" points="87.8489021 0 126.534657 0 38.685755 12.8695234 0 12.8695234"></polygon>
          </g>
          <g id="Group-35-Copy-2" transform="translate(0.560218, 312.608931)">
            <polygon id="Path-9" fill="#626262" points="-2.72281836e-14 12.8695234 -2.72281836e-14 16.0869042 256.161483 16.0869042 344.010385 3.21738084 344.010385 0"></polygon>
            <polygon id="Rectangle" fill="#818181" points="87.8489021 0 344.010385 0 256.161483 12.8695234 9.10688228e-13 12.8695234"></polygon>
          </g>
          <g id="dude-copy-2" transform="translate(196.116505, 234.803427) scale(-1, 1) rotate(10.000000) translate(-196.116505, -234.803427) translate(134.368932, 151.360887)">
            <polygon id="Path-7" fill="#D8D8D8" points="13.6594759 115.451643 8.24087484 112.705216 9.61359215 109.994935 16.1231403 111.931893"></polygon>
            <polygon id="Path-6" fill="#D8D8D8" points="92.4054809 152.7756 94.8676848 159.745727 97.8587556 159.21813 96.3820174 150.840103"></polygon>
            <g id="lower-body" transform="translate(0.000000, 105.468378)" fill="#002DC0">
              <path d="M106.105362,53.6916267 C105.386054,55.4902313 99.1481272,57.118042 98.4285374,57.1179294 C97.7089475,57.1178167 93.0318387,58.5560581 93.7510907,56.3977101 C94.4703426,54.239362 99.0421442,52.8557114 100.654503,51.148722 C101.433197,51.5119941 101.641063,52.0829908 102.782719,51.6675417 C103.924376,51.2520925 103.924376,51.2520925 104.287339,50.4733713 C104.650301,49.6946501 106.290818,53.2278998 106.105362,53.6916267 Z" id="Path-80" transform="translate(99.898038, 53.974492) scale(-1, 1) rotate(30.000000) translate(-99.898038, -53.974492) "></path>
              <path d="M10.4431859,3.52233758 C12.0583635,5.31571245 12.6551672,6.73901633 12.2335969,7.79224921 C11.5137885,9.59058715 5.1830387,11.1733689 4.41915939,11.4569032 C4.20404367,11.5367492 3.75928072,11.6923546 3.22578925,11.8341301 C1.86484408,12.1958016 -0.073518045,12.4674722 -0.249877736,11.1618499 C-0.495370551,9.34442276 5.32271585,5.46898183 6.1158299,4.1958147 C6.89278439,4.77026184 7.06766864,4.83986736 8.24512752,4.63863107 C8.78243256,4.54680173 9.18145786,4.22397223 9.44220343,3.67014258 L9.44215826,3.67012131 C9.58507071,3.36657194 9.94699952,3.23634999 10.2505489,3.37926243 C10.3236353,3.41367184 10.389125,3.46231227 10.4431859,3.52233758 Z" id="Path-80-Copy" transform="translate(6.053528, 7.444824) scale(-1, 1) rotate(-101.000000) translate(-6.053528, -7.444824) "></path>
            </g>
            <g id="Group-13" transform="translate(46.263965, 9.722596)">
              <polygon id="Path-76" fill="#CDCDCD" points="15.7774682 21.5481882 16.1314077 35.7619166 9.33041978 36.7849318 10.6767272 22.2301983"></polygon>
              <g id="Group-27" transform="translate(14.305990, 16.148392) scale(-1, 1) rotate(-10.000000) translate(-14.305990, -16.148392) translate(3.022644, 2.072351)">
                <path d="M5.57575303,27.3681843 C10.1422275,29.0308461 15.3115643,25.1505481 15.6516137,20.3764774 C20.1570907,12.7885923 17.6919101,4.69024507 10.8909222,3.66722992 C4.08993426,2.64421477 0.41756325,11.1272412 0.0775138542,17.6063372 C-0.262535542,24.0854331 1.00927854,25.7055224 5.57575303,27.3681843 Z" id="Path-72" fill="#D8D8D8"></path>
                <path d="M2.46777441,7.48340415 C9.94075895,8.26434972 10.9396495,13.5414357 17.0605386,12.8594256 C17.7406374,15.587466 13.9513667,22.4225077 14.9715149,22.7635128 C15.9916631,23.1045178 27.4805535,13.3573002 19.2835619,3.90615364 C11.0865703,-5.54499292 -5.00521013,6.70245858 2.46777441,7.48340415 Z" id="Path-73" fill="#003AFA"></path>
                <path d="M15.0265408,17.0623352 C16.1600388,15.2436416 17.180187,14.7889682 18.0869854,15.698315 C19.447183,17.0623352 17.4068866,21.4954008 15.7066396,21.1543958 C14.5731416,20.9270591 14.346442,19.5630389 15.0265408,17.0623352 Z" id="Path-74" fill="#D8D8D8"></path>
              </g>
            </g>
            <g id="upper-body" transform="translate(0.378380, 0.559448)">
              <path d="M86.1002187,18.2424058 C94.1179956,20.2352092 98.7264298,21.9510627 99.9255214,23.3899663 C101.124613,24.82887 105.567932,32.7196209 113.255478,47.0622191 C116.487052,51.5458896 116.663686,54.1476529 113.785381,54.867509 C113.441559,54.9534979 115.178062,63.3902272 113.822171,63.3089769 C112.466281,63.2277266 111.895659,55.1573638 111.599648,55.0087655 C111.308941,54.8628299 110.888138,62.3164552 109.836043,61.7089409 C108.783947,61.1014267 110.108626,53.5537608 109.956439,53.1068562 C109.670594,52.2674632 109.551574,50.4113696 109.599376,47.5385753 C103.028653,36.1458167 98.6790049,29.4112314 96.5504316,27.3348194 C95.5910246,27.3349309 91.3878421,26.2229341 83.9408841,23.9988288 L86.1002187,18.2424058 Z" id="Path-78" fill="#D8D8D8" transform="translate(99.880089, 40.775983) scale(1, -1) rotate(-20.000000) translate(-99.880089, -40.775983) "></path>
              <path d="M70.4669409,78.889611 C70.8888661,81.283333 88.8309097,109.58738 89.7802414,114.973255 C90.729573,120.359129 98.3256869,152.956249 96.5310444,153.272807 C95.3346161,153.483846 93.7393783,153.765231 91.7453311,154.116962 C81.4736167,130.835983 76.8304923,118.491544 77.8159581,117.083644 C67.1550448,109.091547 59.0632773,98.1781317 58.4650631,98.2836511 C57.8668489,98.3891706 52.5161346,113.524825 41.4303753,124.11876 C36.8556246,126.159777 27.2731269,123.119428 12.6828823,114.997714 L14.7246214,109.084242 C24.9289358,110.986514 31.5675678,112.489346 34.6405174,113.592736 C37.3888729,87.1924218 42.9490893,83.7435054 44.5327692,82.2300861 C46.1164491,80.7166667 70.0450157,76.495889 70.4669409,78.889611 Z" id="Path-5" fill="#4F4F4F"></path>
              <path d="M12.9276103,1.00068672 C14.1266974,2.43955519 14.9439384,10.3320511 15.3793332,24.6781746 C17.8091182,29.5457636 17.9446382,32.1780256 15.785893,32.5749606 C15.4093748,32.6441921 16.2519724,40.7257418 15.0554506,40.9369247 C13.8589287,41.1481076 14.0306065,33.4242632 13.6851295,33.1579359 C13.4139364,32.9488738 12.6624069,41.3592904 11.3604758,40.9720895 C10.0585446,40.5848886 11.6623099,32.790638 11.5741189,31.6795589 C11.5563344,31.4555006 11.7613225,29.1574226 12.1890833,24.785325 C9.56279146,13.006541 8.24973912,6.39763676 8.24992624,4.9586123 C6.81079717,4.95879948 11.1289796,-1.15761599 12.9276103,1.00068672 Z" id="Path-78-Copy" fill="#D8D8D8" transform="translate(12.635304, 20.762243) rotate(157.000000) translate(-12.635304, -20.762243) "></path>
              <path d="M55.8066219,41.546464 C56.7659883,43.2254186 57.9651964,44.0648958 59.404246,44.0648958 C60.8432956,44.0648958 61.7912453,43.177341 62.248095,41.4022314 C73.1637734,45.4546303 82.8737107,48.4936002 91.3779069,50.519141 C102.311873,43.8348562 109.874968,37.6985522 110.208627,38.3658959 C110.928152,39.8049998 114.213045,41.0444312 113.853282,41.4042072 C113.684839,41.5726573 97.4523327,58.4187504 93.8076772,59.0264126 C91.3779069,59.4315208 83.9974445,58.9889894 71.6662901,57.6988184 C74.6225461,73.2268074 75.5010701,81.7103539 74.3018621,83.1494578 C72.5030501,85.3081136 42.1282527,84.5409611 41.0489655,83.4616332 C40.3294407,82.7420813 41.2691618,72.9094192 43.8681287,53.9636469 C31.5060096,49.1511308 24.0573033,45.5723132 21.5220099,43.2271939 C17.7190698,39.7095151 8.12891079,18.8282171 8.68481603,18.8282171 C9.89970119,18.8282171 11.4490949,17.9564459 12.1686197,17.5966699 C12.503269,17.429339 26.9831115,35.8981499 28.8113209,37.1505714 C30.0301271,37.985519 39.0285608,39.4508166 55.8066219,41.546464 Z" id="Path-77" fill="#008FD2"></path>
            </g>
          </g>
          <g id="girl" transform="translate(39.611650, 159.899194)">
            <g id="head" transform="translate(18.938964, 2.740227)">
              <polygon id="Path-62" fill="#CDCDCD" points="27.6129127 33.0514113 27.2073601 41.97458 31.2628861 54.9537346 32.4795439 41.97458 31.2628861 33.0514113"></polygon>
              <g id="Group-30" transform="translate(20.434578, 21.838851) rotate(-10.000000) translate(-20.434578, -21.838851) translate(2.973268, 3.342319)">
                <path d="M2.42883423,15.0712479 C0.142872602,15.0712479 -0.529469053,17.1798604 0.411809263,18.4977432 C1.35308758,19.815626 3.10117588,18.893108 3.63904921,18.4977432 C4.17692253,18.1023784 4.71479585,15.0712479 2.42883423,15.0712479 Z" id="Path-61-Copy-3" fill="#0078B0"></path>
                <path d="M3.23844564,10.2758509 C0.190496802,10.2758509 -0.705958737,13.0873341 0.549079018,14.8445112 C1.80411677,16.6016882 4.13490118,15.3716643 4.85206561,14.8445112 C5.56923004,14.3173581 6.28639447,10.2758509 3.23844564,10.2758509 Z" id="Path-61-Copy-2" fill="#0080BC"></path>
                <path d="M7.59669748,3.42528362 C3.02477422,3.42528362 1.68009092,7.64250854 3.56264755,10.2782741 C5.44520418,12.9140397 8.94138078,11.0690038 10.0171274,10.2782741 C11.0928741,9.48754444 12.1686207,3.42528362 7.59669748,3.42528362 Z" id="Path-61-Copy" fill="#0083C1"></path>
                <path d="M16.188347,0 C9.33046213,0 7.31343716,6.32583737 10.1372721,10.2794857 C12.9611071,14.2331341 18.205372,11.4655802 19.8189919,10.2794857 C21.4326119,9.09339122 23.0462319,0 16.188347,0 Z" id="Path-61" fill="#008FD2"></path>
                <path d="M22.9751371,5.18302359 C13.7573492,6.38384415 12.8653052,13.8889727 14.3520452,18.9924601 C15.8387852,24.0959475 18.5149171,25.5969732 23.8671811,25.5969732 C29.2194451,25.5969732 34.8690571,21.0938961 34.2743611,15.9904087 C33.6796651,10.8869213 32.1929251,3.98220302 22.9751371,5.18302359 Z" id="Path-59" fill="#00AAE3"></path>
                <path d="M25.908428,36.5391413 C29.9639552,36.5391413 35.0676075,30.4356182 33.8510046,21.106861 C32.6344017,11.7781037 30.6066573,8.53335937 25.3344719,8.53335937 C20.0622865,8.53335937 17.2233285,17.050975 17.2233285,23.5405502 C17.2233285,30.0301255 21.8529008,36.5391413 25.908428,36.5391413 Z" id="Path-58" fill="#D8D8D8" transform="translate(25.628584, 22.536250) rotate(-3.000000) translate(-25.628584, -22.536250) "></path>
                <path d="M28.6024327,13.4443893 C27.3857749,17.9059736 19.6785949,24.5087244 16.4341741,23.2919286 C13.1897534,22.0751329 15.8819608,4.94871479 26.0207757,6.16551052 C32.7799857,6.97670768 35.2907623,11.5437525 33.5531055,19.866645 C32.1452357,19.641127 30.4950115,17.500375 28.6024327,13.4443893 Z" id="Path-60" fill="#00AAE3"></path>
              </g>
            </g>
            <path d="M40.4685882,73.5123061 C30.7524812,80.6801272 26.1647962,94.5392018 26.705533,115.08953 C32.5752157,115.08953 45.6390269,117.242077 60.9433957,115.08953 C64.8394315,114.541556 70.5457419,112.486385 78.0623271,108.924019 C67.3293596,88.8313982 60.070297,76.2162966 56.2851395,71.0787146 C49.5259295,71.3491137 44.2537458,72.1603108 40.4685882,73.5123061 Z" id="Path-69" fill="#002291"></path>
            <g id="bottom-body" transform="translate(0.112331, 71.078715)">
              <g id="Group-28" transform="translate(0.280682, 11.626496)">
                <g id="Path-69" transform="translate(52.466756, 7.853872)">
                  <mask id="mask-2" fill="white">
                    <use xlink:href="#path-1"></use>
                  </mask>
                  <use id="Mask" fill="#D8D8D8" xlink:href="#path-1"></use>
                </g>
                <path d="M34.0227834,9.6820477 C34.022912,13.7379942 35.7805636,21.30915 39.2957382,32.3955152 C37.4031236,31.8433958 29.198242,34.5477673 14.6810935,40.5086296 C13.6168445,39.3773212 12.6189791,39.5067794 11.6874975,40.8970042 C10.7560159,42.287229 9.7869244,45.1282966 8.78022299,49.4202069 L14.6939268,43.7950264 C34.0693524,40.5105229 44.2977772,37.9219008 45.3792013,36.0291601 C47.0013374,33.190049 45.3783276,8.46562374 41.7282289,5.62634549 C39.2948297,3.73349332 36.7263479,5.08539406 34.0227834,9.6820477 Z" id="Path-70-Copy" fill="#D8D8D8" transform="translate(27.394029, 27.109197) rotate(17.000000) translate(-27.394029, -27.109197) "></path>
                <path d="M57.8200505,71.3950723 C60.7941028,73.2878657 63.3626026,74.639861 65.5255498,75.4510581 C66.336655,75.8566567 69.1755232,77.0734525 69.1755232,78.2902482 C69.1755232,79.5070439 57.8200505,76.2622553 57.0089453,74.2342624 C57.0089453,72.8822671 57.2793137,71.9358705 57.8200505,71.3950723 Z" id="Path-81" fill="#008FD2"></path>
                <path d="M0.809295501,36.224972 C3.78357667,38.1174675 6.35228435,39.4692338 8.51541853,40.280271 C9.32659015,40.6857994 12.1656539,41.9023699 12.1656539,43.1190438 C12.1656539,44.3357177 0.809118158,41.0916677 -0.00199435046,39.0639074 C-0.00199435046,37.7120475 0.2684356,36.7657357 0.809295501,36.224972 Z" id="Path-81-Copy" fill="#008FD2" transform="translate(6.081830, 39.804794) rotate(110.000000) translate(-6.081830, -39.804794) "></path>
              </g>
              <path d="M40.3562571,2.43359148 C30.6401502,9.60141258 26.0524651,23.4604872 26.5932019,44.0108152 C32.4628846,44.0108152 44.1571814,41.3679653 59.4615502,39.2154181 C63.3575859,38.6674438 69.5204012,38.2107393 77.9499961,37.8453047 C67.2170285,17.7526836 59.957966,5.13758201 56.1728084,0 C49.4135985,0.270399053 44.1414147,1.08159621 40.3562571,2.43359148 Z" id="Path-69" fill="#002DC0"></path>
            </g>
            <g id="upperbody" transform="translate(4.108544, 0.565387)">
              <g id="Group-29" transform="translate(23.624125, 32.659864) rotate(75.000000) translate(-23.624125, -32.659864) translate(-3.423786, 15.875974)">
                <path d="M3.42273528,33.8792579 L5.24784029,29.631649 C3.89580771,27.4686682 3.49018693,26.2519984 4.03097794,25.9816395 C4.57176896,25.7112807 5.1125757,26.2520298 5.65339817,27.6038869 C5.65332974,24.0748558 6.66729513,22.651879 8.69529434,23.3349566 C10.7232936,24.0180342 10.1825471,26.5865323 7.07305498,31.0404508 L5.45073698,34.6904052 L3.42273528,33.8792579 Z" id="Path-71-Copy" fill="#D8D8D8" transform="translate(6.659422, 28.929600) scale(-1, 1) rotate(80.000000) translate(-6.659422, -28.929600) "></path>
                <path d="M51.1182124,7.18003434e-12 C41.3849501,7.30077443 34.2201875,13.3847531 29.6239248,18.2519361 C27.731346,18.7927342 20.5665835,21.4967247 8.12963715,26.3639077 L8.94074234,30.4198935 C23.2702674,27.1751048 30.9757668,25.417511 32.0572404,25.1471119 C33.0689732,24.8941501 39.7596426,20.3815028 44.8488543,16.6273082 C47.9196743,14.3620347 53.2977601,10.842641 53.6029989,10.2320942 C54.1437357,9.15049798 53.3154735,5.73979991 51.1182124,7.18003434e-12 Z" id="Path-68" fill="#6075B7"></path>
              </g>
              <g id="Group-29-Copy" transform="translate(64.709561, 30.604694) scale(-1, 1) rotate(78.000000) translate(-64.709561, -30.604694) translate(37.661649, 13.820804)">
                <path d="M3.42273528,33.8792579 L5.24784029,29.631649 C3.89580771,27.4686682 3.49018693,26.2519984 4.03097794,25.9816395 C4.57176896,25.7112807 5.1125757,26.2520298 5.65339817,27.6038869 C5.65332974,24.0748558 6.66729513,22.651879 8.69529434,23.3349566 C10.7232936,24.0180342 10.1825471,26.5865323 7.07305498,31.0404508 L5.45073698,34.6904052 L3.42273528,33.8792579 Z" id="Path-71-Copy" fill="#D8D8D8" transform="translate(6.659422, 28.929600) scale(-1, 1) rotate(80.000000) translate(-6.659422, -28.929600) "></path>
                <path d="M51.1182124,7.18003434e-12 C41.3849501,7.30077443 34.2201875,13.3847531 29.6239248,18.2519361 C27.731346,18.7927342 20.5665835,21.4967247 8.12963715,26.3639077 L8.94074234,30.4198935 C23.2702674,27.1751048 30.9757668,25.417511 32.0572404,25.1471119 C33.0689732,24.8941501 39.7596426,20.3815028 44.8488543,16.6273082 C47.9196743,14.3620347 53.2977601,10.842641 53.6029989,10.2320942 C54.1437357,9.15049798 53.3154735,5.73979991 51.1182124,7.18003434e-12 Z" id="Path-68" fill="#6075B7"></path>
              </g>
              <polygon id="Path-64" fill="#AF55FF" points="42.4433336 50.6389969 48.12107 50.2333983 48.12107 58.3453699 44.065544 58.7509685"></polygon>
              <path d="M42.037781,42.5270253 C43.294427,44.3979506 44.3464929,45.3334133 45.1939789,45.3334133 C46.0414648,45.3334133 46.7467934,44.3979506 47.3099648,42.5270253 C52.4765117,48.97799 55.1949693,59.5042468 55.4653377,74.1057957 C52.2209169,75.72819 42.6016106,74.664712 32.8683483,75.4759092 C32.4118434,58.1211388 35.468321,47.1381775 42.037781,42.5270253 Z" id="Path-63" fill="#7388CB"></path>
            </g>
          </g>
          <g id="spark" transform="translate(410.606145, 137.719092) rotate(60.000000) translate(-410.606145, -137.719092) translate(389.126214, 108.669355)">
            <polygon id="Path-82" fill="#2CCAFF" transform="translate(38.510858, 19.664185) rotate(40.000000) translate(-38.510858, -19.664185) " points="37.1237771 15.0779875 39.8979389 15.1923262 38.9338366 24.2503821"></polygon>
            <polygon id="Path-82-Copy-2" fill="#D8D8D8" points="19.2919884 19.5453822 21.2013157 20.0216074 20.2466521 22.8789586"></polygon>
            <polygon id="Path-82-Copy-4" fill="#AF55FF" transform="translate(5.853396, 37.404214) scale(1, -1) rotate(-40.000000) translate(-5.853396, -37.404214) " points="4.31325966 36.3833282 7.39353317 35.9041799 5.52362863 38.9042488"></polygon>
            <polygon id="Path-82-Copy" fill="#879CDD" transform="translate(5.679396, 17.713795) rotate(-50.000000) translate(-5.679396, -17.713795) " points="4.29274007 11.722817 7.06605264 11.8435432 5.45467774 23.7047724"></polygon>
            <polygon id="Path-82-Copy-6" fill="#879CDD" transform="translate(38.716190, 51.574048) scale(1, -1) rotate(20.000000) translate(-38.716190, -51.574048) " points="37.3889622 45.3355441 40.0434169 45.9029735 39.0801206 57.8125511"></polygon>
            <polygon id="Path-82-Copy-3" fill="#AF55FF" transform="translate(27.863233, 4.607021) rotate(10.000000) translate(-27.863233, -4.607021) " points="26.6772049 0.642089629 29.0492604 0.475746299 27.1512862 8.73829602"></polygon>
            <polygon id="Path-82-Copy-5" fill="#2CCAFF" transform="translate(18.429701, 47.081242) scale(1, -1) rotate(-20.000000) translate(-18.429701, -47.081242) " points="17.2653522 43.0320493 19.5940497 43.3596305 17.7486008 51.130434"></polygon>
          </g>
          <g id="spark-copy" transform="translate(218.761485, 36.035624) rotate(-30.000000) translate(-218.761485, -36.035624) translate(197.281553, 6.985887)">
            <polygon id="Path-82" fill="#2CCAFF" transform="translate(38.510858, 19.664185) rotate(40.000000) translate(-38.510858, -19.664185) " points="37.1237771 15.0779875 39.8979389 15.1923262 38.9338366 24.2503821"></polygon>
            <polygon id="Path-82-Copy-2" fill="#D8D8D8" points="19.2919884 19.5453822 21.2013157 20.0216074 20.2466521 22.8789586"></polygon>
            <polygon id="Path-82-Copy-4" fill="#AF55FF" transform="translate(5.853396, 37.404214) scale(1, -1) rotate(-40.000000) translate(-5.853396, -37.404214) " points="4.31325966 36.3833282 7.39353317 35.9041799 5.52362863 38.9042488"></polygon>
            <polygon id="Path-82-Copy" fill="#879CDD" transform="translate(5.679396, 17.713795) rotate(-50.000000) translate(-5.679396, -17.713795) " points="4.29274007 11.722817 7.06605264 11.8435432 5.45467774 23.7047724"></polygon>
            <polygon id="Path-82-Copy-6" fill="#879CDD" transform="translate(38.716190, 51.574048) scale(1, -1) rotate(20.000000) translate(-38.716190, -51.574048) " points="37.3889622 45.3355441 40.0434169 45.9029735 39.0801206 57.8125511"></polygon>
            <polygon id="Path-82-Copy-3" fill="#AF55FF" transform="translate(27.863233, 4.607021) rotate(10.000000) translate(-27.863233, -4.607021) " points="26.6772049 0.642089629 29.0492604 0.475746299 27.1512862 8.73829602"></polygon>
            <polygon id="Path-82-Copy-5" fill="#2CCAFF" transform="translate(18.429701, 47.081242) scale(1, -1) rotate(-20.000000) translate(-18.429701, -47.081242) " points="17.2653522 43.0320493 19.5940497 43.3596305 17.7486008 51.130434"></polygon>
          </g>
          <g id="spark-copy-3" transform="translate(304.198378, 95.027560) scale(-1, 1) rotate(70.000000) translate(-304.198378, -95.027560) translate(282.718447, 65.977823)">
            <polygon id="Path-82" fill="#2CCAFF" transform="translate(38.510858, 19.664185) rotate(40.000000) translate(-38.510858, -19.664185) " points="37.1237771 15.0779875 39.8979389 15.1923262 38.9338366 24.2503821"></polygon>
            <polygon id="Path-82-Copy-2" fill="#D8D8D8" points="19.2919884 19.5453822 21.2013157 20.0216074 20.2466521 22.8789586"></polygon>
            <polygon id="Path-82-Copy-4" fill="#AF55FF" transform="translate(5.853396, 37.404214) scale(1, -1) rotate(-40.000000) translate(-5.853396, -37.404214) " points="4.31325966 36.3833282 7.39353317 35.9041799 5.52362863 38.9042488"></polygon>
            <polygon id="Path-82-Copy" fill="#879CDD" transform="translate(5.679396, 17.713795) rotate(-50.000000) translate(-5.679396, -17.713795) " points="4.29274007 11.722817 7.06605264 11.8435432 5.45467774 23.7047724"></polygon>
            <polygon id="Path-82-Copy-6" fill="#879CDD" transform="translate(38.716190, 51.574048) scale(1, -1) rotate(20.000000) translate(-38.716190, -51.574048) " points="37.3889622 45.3355441 40.0434169 45.9029735 39.0801206 57.8125511"></polygon>
            <polygon id="Path-82-Copy-3" fill="#AF55FF" transform="translate(27.863233, 4.607021) rotate(10.000000) translate(-27.863233, -4.607021) " points="26.6772049 0.642089629 29.0492604 0.475746299 27.1512862 8.73829602"></polygon>
            <polygon id="Path-82-Copy-5" fill="#2CCAFF" transform="translate(18.429701, 47.081242) scale(1, -1) rotate(-20.000000) translate(-18.429701, -47.081242) " points="17.2653522 43.0320493 19.5940497 43.3596305 17.7486008 51.130434"></polygon>
          </g>
          <g id="spark-copy-2" transform="translate(120.897408, 90.370302) scale(-1, 1) rotate(190.000000) translate(-120.897408, -90.370302) translate(99.417476, 61.320565)">
            <polygon id="Path-82" fill="#2CCAFF" transform="translate(38.510858, 19.664185) rotate(40.000000) translate(-38.510858, -19.664185) " points="37.1237771 15.0779875 39.8979389 15.1923262 38.9338366 24.2503821"></polygon>
            <polygon id="Path-82-Copy-2" fill="#D8D8D8" points="19.2919884 19.5453822 21.2013157 20.0216074 20.2466521 22.8789586"></polygon>
            <polygon id="Path-82-Copy-4" fill="#AF55FF" transform="translate(5.853396, 37.404214) scale(1, -1) rotate(-40.000000) translate(-5.853396, -37.404214) " points="4.31325966 36.3833282 7.39353317 35.9041799 5.52362863 38.9042488"></polygon>
            <polygon id="Path-82-Copy" fill="#879CDD" transform="translate(5.679396, 17.713795) rotate(-50.000000) translate(-5.679396, -17.713795) " points="4.29274007 11.722817 7.06605264 11.8435432 5.45467774 23.7047724"></polygon>
            <polygon id="Path-82-Copy-6" fill="#879CDD" transform="translate(38.716190, 51.574048) scale(1, -1) rotate(20.000000) translate(-38.716190, -51.574048) " points="37.3889622 45.3355441 40.0434169 45.9029735 39.0801206 57.8125511"></polygon>
            <polygon id="Path-82-Copy-3" fill="#AF55FF" transform="translate(27.863233, 4.607021) rotate(10.000000) translate(-27.863233, -4.607021) " points="26.6772049 0.642089629 29.0492604 0.475746299 27.1512862 8.73829602"></polygon>
            <polygon id="Path-82-Copy-5" fill="#2CCAFF" transform="translate(18.429701, 47.081242) scale(1, -1) rotate(-20.000000) translate(-18.429701, -47.081242) " points="17.2653522 43.0320493 19.5940497 43.3596305 17.7486008 51.130434"></polygon>
          </g>
          <g id="boy" transform="translate(379.226592, 212.065780)">
            <g id="Group-33" transform="translate(33.850036, 37.402052) rotate(60.000000) translate(-33.850036, -37.402052) translate(1.611906, 18.499940)">
              <path d="M14.19771,29.6799267 L8.38955594,30.9703583 C2.79651865,30.9703583 3.28626015e-13,32.4758618 3.28626015e-13,35.4868688 C3.28626015e-13,40.0033794 1.93605137,36.1320846 1.93605137,35.4868688 C1.93605137,34.841653 3.22675228,33.5512214 3.87210274,33.5512214 C4.5174532,33.5512214 5.87611376,33.4505667 6.45350457,34.1964372 C6.88111137,34.7488175 6.54968706,36.7773004 7.09885502,36.7773004 C7.96456389,36.7773004 7.78175657,34.6116257 8.38955594,34.1964372 C8.68793557,33.9926138 11.1751003,33.6615004 11.6163082,33.5512214 C12.5096072,33.3279433 13.8003081,33.3279433 15.488411,33.5512214 L14.19771,29.6799267 Z" id="Path-21" fill="#EBEBEB"></path>
              <path d="M63.2443448,1.9471691 C69.0524989,10.3349745 42.5931301,26.4653694 37.4303265,28.4010168 C33.9884574,29.6914484 25.1686678,32.0572396 10.9709578,35.4983905 L9.68025685,29.6914484 L34.8489247,21.303643 C49.907102,2.80745683 59.372242,-3.64470114 63.2443448,1.9471691 Z" id="Path-20" fill="#31384F"></path>
            </g>
            <path d="M99.0804293,163.285022 L93.9180893,163.284489 C92.9063494,164.31674 92.0068869,164.924601 91.2197019,165.108072 C89.1340611,165.594176 86.2446431,165.088808 86.2446431,165.912835 C86.2446431,166.501711 87.2035401,167.685781 88.679904,168.029775 C92.05682,168.816599 97.9302548,168.250802 99.7261885,167.802005 C100.156206,166.08132 99.9409526,164.575659 99.0804293,163.285022 Z" id="Path-22-Copy" fill="#4D5571" transform="translate(93.092879, 165.853356) rotate(-41.000000) translate(-93.092879, -165.853356) "></path>
            <polygon id="Path-8" fill="#7388CB" points="13.7012049 142.369102 12.8952517 146.390828 8.86548553 145.586483 9.67143876 141.564757"></polygon>
            <path d="M13.1513877,143.361029 L7.2997451,143.77892 C6.41832808,143.816265 5.66818736,143.978535 5.04932293,144.26573 C2.51276821,145.442866 0.531872805,145.905172 0.531265816,146.850094 C0.530202918,148.504745 6.93668839,149.025844 10.7401575,148.518476 C11.3871103,148.432175 13.0596199,147.581241 13.434848,147.487184 C13.8660867,145.76593 13.7716,144.390545 13.1513877,143.361029 Z" id="Path-22" fill="#4D5571" transform="translate(7.115707, 146.032840) rotate(20.000000) translate(-7.115707, -146.032840) "></path>
            <polygon id="Path-16" fill="#D7D6D6" points="55.8661333 31.4550889 55.8661333 43.0689732 64.9010397 43.0689732 62.3196379 26.2933625"></polygon>
            <path d="M53.100283,86.7259141 C58.7028366,115.549199 62.3650436,131.466729 64.086904,134.478505 C65.8087644,137.49028 72.5863828,148.579675 84.4197592,167.746688 L90.5548278,164.169248 C82.3733806,142.2278 76.9918867,130.826465 74.410346,129.965245 C83.4361061,104.803394 83.4347826,100.931866 81.4939948,86.7356025 C80.2001363,77.2714267 70.7355657,77.2681972 53.100283,86.7259141 Z" id="Path-19" fill="#3F0177" transform="translate(71.827555, 123.690868) rotate(-10.000000) translate(-71.827555, -123.690868) "></path>
            <path d="M45.9393341,89.3908687 C31.432176,98.5067811 23.3726437,104.673428 21.7607372,107.890809 C19.3428775,112.71688 9.67143876,138.455926 8.86548553,142.477653 C11.0146941,142.941516 12.7356287,143.477746 14.0282892,144.086343 C25.4167433,128.011036 30.6807368,117.822664 29.8202695,113.521225 C66.8941181,109.499499 77.3744494,95.5247679 74.1476971,87.7821783 C69.8523895,77.4755909 60.4496018,78.011821 45.9393341,89.3908687 Z" id="Path-18" fill="#7A00E6"></path>
            <path d="M49.8985833,36.1870947 C54.1878089,38.8541536 68.127792,37.2539183 68.127792,20.1847414 C68.127792,3.11556453 58.4770344,8.44968231 54.1878089,11.1167412 C49.8985833,13.7838001 45.6093577,33.5200358 49.8985833,36.1870947 Z" id="Path-15" fill="#EBEBEB"></path>
            <path d="M64.9010397,40.48811 C64.0405725,42.2086855 62.5347547,43.0689732 60.3835865,43.0689732 C58.2324183,43.0689732 56.7266006,42.6388294 55.8661333,41.7785416 C47.2614606,51.2417066 44.0347083,67.1570296 46.1858765,89.5245106 C53.930082,89.5245106 64.9010397,89.5245106 76.5173479,87.5888632 C79.959217,73.3941157 76.0871143,57.6938646 64.9010397,40.48811 Z" id="Path-17" fill="#4D5571"></path>
            <g id="Group-32" transform="translate(55.610773, 50.673748)">
              <path d="M30.3126232,50.5059251 L31.6033242,56.3128673 C29.8823896,60.6143059 30.5277401,62.5499533 33.5393755,62.1198095 C36.551011,61.6896656 36.9812446,59.5389463 34.8300764,55.6676515 L33.5393755,49.2154935 L30.3126232,50.5059251 Z" id="Path-23" fill="#EBEBEB"></path>
              <path d="M44.741784,11.5642978 C50.5487262,19.9538537 24.0948785,36.0876152 18.9331522,38.0236665 C15.4920012,39.3143674 6.67405201,41.6806524 -7.52069553,45.1225215 L-8.81112712,39.3143674 L16.352289,30.9248115 C31.4073242,12.4247651 40.8704892,5.97126051 44.741784,11.5642978 Z" id="Path-20-Copy" fill="#31384F" transform="translate(18.379402, 27.369622) rotate(-90.000000) translate(-18.379402, -27.369622) "></path>
            </g>
            <path d="M50.4886992,14.3845462 C54.3654736,16.0339633 63.7804971,14.3845462 64.8881469,18.7829919 C65.9957967,23.1814376 63.2266721,28.6794947 65.9957967,29.7791061 C68.7649213,30.8787175 80.3952444,16.5837691 75.9646451,8.88648913 C71.5340458,1.18920921 48.2733995,-1.01001363 48.2733995,2.28882062 C48.2733995,5.58765488 46.6119248,12.7351291 50.4886992,14.3845462 Z" id="Path-24" fill="#737373"></path>
          </g>
          <g id="Group-31" transform="translate(306.897678, 240.570766) rotate(19.000000) translate(-306.897678, -240.570766) translate(260.684086, 152.082863)">
            <g id="girl" transform="translate(44.333694, 88.487903) scale(-1, 1) translate(-44.333694, -88.487903) translate(0.450199, 0.000000)">
              <path d="M14.6410252,72.4075764 L9.12897419,73.6293299 C3.81984992,73.6238248 1.16676909,75.0531209 1.1697317,77.9172182 C1.17418058,82.2133642 8.5556126,77.0923383 9.13215019,76.6980055 C9.41518286,76.5044205 11.7757685,76.1919105 12.1944713,76.0874464 C13.0422049,75.8759415 14.2673874,75.8772119 15.8700189,76.0912576 L14.6410252,72.4075764 Z" id="Path-21-Copy" fill="#EBEBEB" transform="translate(8.519875, 76.015762) scale(1, -1) rotate(24.000000) translate(-8.519875, -76.015762) "></path>
              <path d="M62.4791228,46.5011935 C67.9898989,54.4834268 42.8852523,69.8338754 37.9867847,71.6759293 C34.7211396,72.9039652 26.3529241,75.1553643 12.8821381,78.4301267 L11.6575212,72.9039652 L35.5375509,64.9217319 C49.8247481,47.3198841 58.8052721,41.1797047 62.4791228,46.5011935 Z" id="Path-20" fill="#7300D8"></path>
              <g id="Group-34" transform="translate(49.620599, 122.633070) rotate(20.000000) translate(-49.620599, -122.633070) translate(27.456886, 73.165840)">
                <path d="M11.6338606,90.7325834 L6.73539298,90.7325834 C5.68971118,91.6877518 4.87329991,92.3017697 4.28615917,92.5746373 C1.87963107,93.6930461 -1.19904087e-13,94.1316863 -1.19904087e-13,95.0307091 C-1.19904087e-13,96.8727629 9.79693525,96.258745 12.2461691,95.644727 C12.6543747,94.0073458 12.4502719,92.3699646 11.6338606,90.7325834 Z" id="Path-22" fill="#4D5571"></path>
                <path d="M42.3559873,88.8622129 L37.4563507,88.8660366 C37.4657704,89.674452 37.2611409,90.2884832 36.8424622,90.70813 C34.390732,93.1655292 29.6723625,95.9007277 33.162955,96.849716 C36.6535475,97.7987043 40.5143219,94.3884931 42.9646182,93.7727094 C43.3741958,92.1353993 43.1713189,90.4985671 42.3559873,88.8622129 Z" id="Path-22-Copy-2" fill="#4D5571" transform="translate(37.545166, 92.938808) rotate(-17.000000) translate(-37.545166, -92.938808) "></path>
                <path d="M6.06325397,8.28950452 C4.59904645,34.3601997 3.86694269,49.2376012 3.86694269,52.9217089 C3.86694269,58.4478704 5.31712033,88.7865833 6.73539298,91.3466014 C11.0215522,91.3466014 7.34770144,91.3466014 11.6338606,90.7325834 C12.8720778,79.009174 16.8743601,56.935165 14.873219,54.9284369 C25.8794952,36.8678842 34.8417513,14.429684 31.780209,7.06146863 C27.7048215,-2.74676864 19.1325031,-2.33742335 6.06325397,8.28950452 Z" id="Path-18" fill="#062A9F"></path>
                <path d="M11.9240636,10.4383051 C8.17443395,17.3487557 16.8743601,54.9284369 17.8749307,57.9385291 C18.8755012,60.9486212 33.8060436,84.7426828 35.8852009,90.0461785 C37.075211,90.0461785 40.5947939,88.0394504 41.8886243,88.0394504 C40.8880538,79.009174 31.8829186,55.931801 29.6211781,53.9735816 C40.0304219,27.1526187 35.8040932,16.2712133 34.5794763,11.666341 C29.7471446,-6.5044605 15.6736932,3.52785444 11.9240636,10.4383051 Z" id="Path-18-Copy" fill="#003AFA"></path>
              </g>
              <polygon id="Path-16" fill="#D7D6D6" points="52.5945875 25.0662514 52.5945875 36.1185744 61.1669058 36.1185744 58.717672 20.1541078"></polygon>
              <path d="M46.1825588,31.0809764 C50.3834536,33.7882827 64.0363617,32.1638989 64.0363617,14.8371383 C64.0363617,-2.48962226 54.5843484,2.92499043 50.3834536,5.63229677 C46.1825588,8.33960311 41.981664,28.37367 46.1825588,31.0809764 Z" id="Path-15" fill="#EBEBEB"></path>
              <path d="M61.1669058,33.6625026 C60.3504946,35.2998838 58.9217748,36.1185744 56.8807467,36.1185744 C54.8397185,36.1185744 53.4109988,35.7092291 52.5945875,34.8905385 C44.3024172,47.7830163 41.1768461,64.872233 43.2178743,86.1581884 C50.5655758,86.1581884 63.4240533,86.7722063 74.4456054,84.9301525 C72.4045772,55.8666364 67.978344,38.7774198 61.1669058,33.6625026 Z" id="Path-17" fill="#AF55FF"></path>
              <path d="M48.0019547,7.07132755 C49.177228,12.9641005 53.8783215,17.3836802 62.1052351,20.3300667 C53.2906848,26.5174783 54.5181575,38.3698579 52.7552475,41.0216057 C50.9923374,43.6733535 77.0899705,44.1957972 77.9714255,43.3118812 C78.368754,42.9134434 79.9496246,28.6060565 78.5457508,20.1086302 C76.8351951,9.75490612 71.5273717,4.68070085 64.7496001,1.76783189 C56.5226866,-1.76783189 50.9401381,-9.76996262e-14 48.0019547,7.07132755 Z" id="Path-26" fill="#8B8B8B"></path>
            </g>
            <g id="Group-5" transform="translate(57.814027, 56.820151) scale(-1, 1) translate(-57.814027, -56.820151) translate(23.639269, 34.310070)">
              <path d="M13.6896069,25.5744594 L8.17883078,26.8024953 C2.13414802,26.4701227 -0.519188606,27.9028313 0.218820892,31.100621 C1.32583514,35.8973055 7.6021508,30.2676981 8.17883078,29.8725851 C8.46193335,29.678617 10.821755,29.3635138 11.240373,29.2585671 C12.087935,29.0460851 13.3125519,29.0460851 14.9142238,29.2585671 L13.6896069,25.5744594 Z" id="Path-21" fill="#EBEBEB" transform="translate(7.506296, 29.300080) scale(1, -1) translate(-7.506296, -29.300080) "></path>
              <path d="M63.8587151,7.42091656 C69.3751407,15.4053975 44.2763148,30.738321 39.3782793,32.5771178 C36.1129222,33.8029823 27.7448983,36.0489434 14.2742076,39.3150011 L13.0460454,33.7888687 L36.9245778,25.8223731 C51.2030522,8.23174809 60.1810979,2.09792924 63.8587151,7.42091656 Z" id="Path-20-Copy" fill="#BA6DFF" transform="translate(38.846166, 22.440534) rotate(13.000000) translate(-38.846166, -22.440534) "></path>
            </g>
          </g>
        </g>
      </g>
    </g>
  </g>
</svg>