<svg xmlns="http://www.w3.org/2000/svg" width="677" height="443" viewBox="0 0 677 443">
    <g fill="none" fill-rule="nonzero">
        <g>
            <path fill="#3F3D56" d="M86.162 304L85 303.739c12.961-57.502 45.535-109.718 91.72-147.031 70.984-57.26 166.543-73.973 252.82-44.217C515.817 142.247 580.624 214.268 601 303.037l-1.161.264C572.4 183.123 466.819 99.188 343.079 99.188c-122.116 0-230.166 86.136-256.917 204.812z"/>
            <circle cx="535.5" cy="131.5" r="32.5" fill="#FF6584"/>
            <path fill="#3F3D56" d="M522 260h1v47h-1z"/>
            <path fill="#0DC4D0" d="M534 265.946c.075 16.569-11.364 30.054-11.364 30.054s-11.56-13.377-11.636-29.946C510.925 249.485 522.364 236 522.364 236s11.56 13.377 11.636 29.946z"/>
            <path fill="#000" d="M534 265.946c.075 16.569-11.364 30.054-11.364 30.054s-11.56-13.377-11.636-29.946C510.925 249.485 522.364 236 522.364 236s11.56 13.377 11.636 29.946z" opacity=".1"/>
            <circle cx="298.5" cy="148.5" r="18.5" fill="#0DC4D0" opacity=".4"/>
            <circle cx="264" cy="156" r="13" fill="#0DC4D0" opacity=".4"/>
            <circle cx="124" cy="195" r="13" fill="#0DC4D0" opacity=".4"/>
            <circle cx="509.5" cy="146.5" r="18.5" fill="#0DC4D0" opacity=".4"/>
            <path fill="#3F3D56" d="M33.31 302.187c1.03 3.59 4.552 5.813 4.552 5.813s1.856-3.597.827-7.187c-1.028-3.59-4.551-5.813-4.551-5.813s-1.856 3.597-.827 7.187z"/>
            <path fill="#0DC4D0" d="M34.901 300.994C37.663 303.755 38 308 38 308s-4.14-.232-6.901-2.994C28.337 302.245 28 298 28 298s4.14.232 6.901 2.994z"/>
            <path fill="#3F3D56" d="M398.31 302.187c1.03 3.59 4.552 5.813 4.552 5.813s1.856-3.597.827-7.187c-1.028-3.59-4.551-5.813-4.551-5.813s-1.856 3.597-.827 7.187z"/>
            <path fill="#0DC4D0" d="M399.901 300.994C402.663 303.755 403 308 403 308s-4.14-.232-6.901-2.994C393.337 302.245 393 298 393 298s4.14.232 6.901 2.994z"/>
            <path fill="#3F3D56" d="M40.46 274.049L38 269.903 60.96 250H120v5.805l-21.32 23.22L74.08 284z"/>
            <path fill="#CCC" d="M130.14 261.9V249h-7.712v4.068l-2.428-2.78-19.636 19.787-3.273 3.298L93 289.863 100.364 308H138v-37.1z"/>
            <path fill="#F2F2F2" d="M38 270h62v37H38z"/>
            <path fill="#3F3D56" d="M79 281h13v12H79z"/>
            <path fill="#CCC" d="M61 281h12v27H61z"/>
            <path fill="#3F3D56" d="M49 286v-4h-5v4h4.583zM48.583 289H44v4h5v-4zM52 282h5v4h-5zM52 289h5v4h-5zM118 286v-4h-5v4h4.583zM117.583 289H113v4h5v-4zM121 282h5v4h-5zM121 289h5v4h-5zM278.46 274.049l-2.46-4.146L298.96 250H358v5.805l-21.32 23.22-24.6 4.975z"/>
            <path fill="#CCC" d="M368.14 261.9V249h-7.712v4.068l-2.428-2.78-19.636 19.787-3.273 3.298-4.091 16.49L338.364 308H376v-37.1z"/>
            <path fill="#F2F2F2" d="M276 270h62v37h-62z"/>
            <path fill="#3F3D56" d="M317 281h13v12h-13z"/>
            <path fill="#CCC" d="M299 281h12v27h-12z"/>
            <path fill="#3F3D56" d="M287 286v-4h-5v4h4.583zM286.583 289H282v4h5v-4zM290 282h5v4h-5zM290 289h5v4h-5zM356 286v-4h-5v4h4.583zM355.583 289H351v4h5v-4zM359 282h5v4h-5zM359 289h5v4h-5zM167.09 204.528l-4.09-3.245L185.91 181H244v17.849L206.364 224z"/>
            <path fill="#CCC" d="M254.992 192.474V181.41h-7.68v2.71L244.443 181l-18.74 20.455-7.333 4.909L207 289.781 224.148 307H264V202.273z"/>
            <path fill="#F2F2F2" d="M163 202h62v106h-62z"/>
            <path fill="#CCC" d="M187 281h12v26h-12z"/>
            <path fill="#3F3D56" d="M174 289v-4h-5v4h4.584zM173.584 292H169v4h5v-4zM178 285h5v4h-5zM178 292h5v4h-5zM209 289v-4h-5v4h4.584zM208.584 292H204v4h5v-4zM212 285h5v4h-5zM212 292h5v4h-5zM243 207v-4h-5v4h4.584zM242.584 210H238v4h5v-4zM246 203h5v4h-5zM246 210h5v4h-5zM243 230v-4h-5v4h4.584zM242.584 233H238v4h5v-4zM246 226h5v4h-5zM246 233h5v4h-5zM243 253v-4h-5v4h4.584zM242.584 257H238v4h5v-4zM246 249h5v4h-5zM246 257h5v4h-5zM243 276v-4h-5v4h4.584zM242.584 279H238v4h5v-4zM246 272h5v4h-5zM246 279h5v4h-5zM170 207h47v10h-47zM170 227h47v10h-47zM170 247h47v10h-47zM170 266h47v10h-47zM407.09 204.528l-4.09-3.245L425.91 181H484v17.849L446.364 224z"/>
            <path fill="#CCC" d="M494.992 192.474V181.41h-7.68v2.71L484.443 181l-18.74 20.455-7.333 4.909L447 289.781 464.148 307H504V202.273z"/>
            <path fill="#F2F2F2" d="M403 202h62v106h-62z"/>
            <path fill="#CCC" d="M427 281h12v26h-12z"/>
            <path fill="#3F3D56" d="M415 289v-4h-5v4h4.584zM414.584 292H410v4h5v-4zM418 285h5v4h-5zM418 292h5v4h-5zM449 289v-4h-5v4h4.584zM448.584 292H444v4h5v-4zM452 285h5v4h-5zM452 292h5v4h-5zM483 207v-4h-5v4h4.584zM482.584 210H478v4h5v-4zM486 203h5v4h-5zM486 210h5v4h-5zM483 230v-4h-5v4h4.584zM482.584 233H478v4h5v-4zM486 226h5v4h-5zM486 233h5v4h-5zM483 253v-4h-5v4h4.584zM482.584 257H478v4h5v-4zM486 249h5v4h-5zM486 257h5v4h-5zM483 276v-4h-5v4h4.584zM482.584 279H478v4h5v-4zM486 272h5v4h-5zM486 279h5v4h-5zM411 207h47v10h-47zM411 227h47v10h-47zM411 247h47v10h-47zM411 266h47v10h-47zM538.09 204.528l-4.09-3.245L556.91 181H615v17.849L577.364 224z"/>
            <path fill="#CCC" d="M625.992 192.474V181.41h-7.68v2.71L615.443 181l-18.74 20.455-7.333 4.909L578 289.781 595.148 307H635V202.273z"/>
            <path fill="#F2F2F2" d="M534 202h62v106h-62z"/>
            <path fill="#CCC" d="M558 281h12v26h-12z"/>
            <path fill="#3F3D56" d="M547 289v-4h-5v4h4.584zM546.584 292H542v4h5v-4zM550 285h5v4h-5zM550 292h5v4h-5zM580 289v-4h-5v4h4.584zM579.584 292H575v4h5v-4zM583 285h5v4h-5zM583 292h5v4h-5zM615 207v-4h-5v4h4.584zM614.584 210H610v4h5v-4zM618 203h5v4h-5zM618 210h5v4h-5zM615 230v-4h-5v4h4.584zM614.584 233H610v4h5v-4zM618 226h5v4h-5zM618 233h5v4h-5zM615 253v-4h-5v4h4.584zM614.584 257H610v4h5v-4zM618 249h5v4h-5zM618 257h5v4h-5zM615 276v-4h-5v4h4.584zM614.584 279H610v4h5v-4zM618 272h5v4h-5zM618 279h5v4h-5zM542 207h47v10h-47zM542 227h47v10h-47zM542 247h47v10h-47zM542 266h47v10h-47zM0 307h677v1H0zM150 260h1v47h-1z"/>
            <path fill="#0DC4D0" d="M162 265.946c.075 16.569-11.364 30.054-11.364 30.054s-11.56-13.377-11.636-29.946C138.925 249.485 150.364 236 150.364 236s11.56 13.377 11.636 29.946z"/>
            <path fill="#3F3D56" d="M269 260h1v47h-1z"/>
            <path fill="#0DC4D0" d="M281 265.946c.075 16.569-11.364 30.054-11.364 30.054s-11.56-13.377-11.636-29.946C257.925 249.485 269.364 236 269.364 236s11.56 13.377 11.636 29.946z"/>
            <path fill="#3F3D56" d="M507 260h1v47h-1z"/>
            <path fill="#0DC4D0" d="M519 265.946c.075 16.569-11.364 30.054-11.364 30.054s-11.56-13.377-11.636-29.946C495.925 249.485 507.364 236 507.364 236s11.56 13.377 11.636 29.946z"/>
            <ellipse cx="349.5" cy="97" fill="#0DC4D0" rx="22.5" ry="5"/>
            <path fill="#0DC4D0" d="M375 26.015C375 40.382 349 81 349 81s-26-40.618-26-54.985C323 11.647 334.64 0 349 0s26 11.647 26 26.015z"/>
            <circle cx="349" cy="27" r="15" fill="#F2F2F2"/>
        </g>
        <g transform="matrix(-1 0 0 1 605 70)">
            <ellipse cx="94.5" cy="20.5" fill="#3F3D56" rx="21.5" ry="16.5"/>
            <ellipse cx="138" cy="77.5" fill="#3F3D56" rx="31" ry="30.5"/>
            <circle cx="235.5" cy="351.5" r="7.5" fill="#3F3D56"/>
            <circle cx="195.5" cy="351.5" r="7.5" fill="#3F3D56"/>
            <path fill="#3F3D56" d="M204 166h3v95h-3zM223 166h3v95h-3z"/>
            <path fill="#3F3D56" d="M204.87 167l-.87-2.499s9.548-10.83 23-2.1l-.87 3.754h-3.472s-5.638-4.54-15.186.646l-2.603.199z"/>
            <path fill="#FBBEBE" d="M116 152h31v40h-31zM159 141h10v19h-10z"/>
            <path fill="#3C354C" d="M120.05 343.879l-3.804 11.844s-1.694 8.77 3.805 9.207c5.498.437 14.385-1.315 14.385-1.315s1.268-3.946 0-7.456c-1.268-3.51-5.072-13.159-5.072-13.159l-9.313.879zM149.134 345s-6.08 15.244-1.303 17.857c4.777 2.612 11.295.433 16.504 2.612 5.21 2.178 19.54-3.046 19.54-3.046s1.741-4.79-7.813-6.097c0 0-10.397-7.841-10.397-9.581 0-1.74-6.08-1.745-6.08-1.745h-10.451z"/>
            <path fill="#3F3D56" d="M148.337 172.84s-35.225 7.312-39.518 5.16c-4.293-2.152-8.59 29.268-8.59 29.268s-1.722 18.927 4.292 44.304c6.014 25.377 0 37.854 0 37.854s.86 24.087 7.308 35.274c6.447 11.187 6.442 21.507 6.442 21.507s12.45 1.29 12.89-1.724c0 0-5.16-12.043-4.299-23.225.86-11.181-2.577-32.694-2.577-32.694s5.587-27.1 4.726-37.398c-.86-10.298 3.01-32.26 5.154-28.39 2.143 3.87 7.735 22.796 7.735 26.672 0 3.875 2.166 29.674 3.438 31.398 1.272 1.724.855 6.884.427 9.464-.427 2.58-.427 21.935 1.716 32.26 2.144 10.325.434 21.935.861 23.659.428 1.723 12.89.428 13.317-2.586 0 0 1.722-18.493 2.582-21.073.861-2.58 1.267-35.317 1.267-35.317s.855-25.377 1.716-27.957c.86-2.58 2.165-58.07-3.437-64.5-5.603-6.427-3.438-22.796-3.438-22.796l-12.012.84z"/>
            <path fill="#FBBEBE" d="M119.098 98.15c-1.577 2.994-3.165 6.015-4.152 9.262-.987 3.248-1.33 6.766-.402 10.03a24.939 24.939 0 0 0 2.746 5.783 19.822 19.822 0 0 0 3.471 4.669c3.219 2.961 7.897 3.556 12.242 4.02a6.157 6.157 0 0 0 2.248-.037 4.24 4.24 0 0 0 1.61-.887c1.904-1.62 2.768-4.096 3.465-6.484a107.69 107.69 0 0 0 3.551-17.37c.164-.929.164-1.88 0-2.81-.375-1.62-1.663-2.88-2.596-4.274a10.954 10.954 0 0 1-1.846-5.62c-.037-.978 0-2.06-.611-2.805a3.75 3.75 0 0 0-1.443-.897c-2.538-1.08-5.07-2.162-7.613-3.2-1.534-.637-4.291-2.334-5.9-1.08-1.38 1.08-.714 3.588-1.304 5.09-.907 2.281-2.328 4.448-3.466 6.61z"/>
            <path fill="#000" d="M119.098 98.15c-1.577 2.994-3.165 6.015-4.152 9.262-.987 3.248-1.33 6.766-.402 10.03a24.939 24.939 0 0 0 2.746 5.783 19.822 19.822 0 0 0 3.471 4.669c3.219 2.961 7.897 3.556 12.242 4.02a6.157 6.157 0 0 0 2.248-.037 4.24 4.24 0 0 0 1.61-.887c1.904-1.62 2.768-4.096 3.465-6.484a107.69 107.69 0 0 0 3.551-17.37c.164-.929.164-1.88 0-2.81-.375-1.62-1.663-2.88-2.596-4.274a10.954 10.954 0 0 1-1.846-5.62c-.037-.978 0-2.06-.611-2.805a3.75 3.75 0 0 0-1.443-.897c-2.538-1.08-5.07-2.162-7.613-3.2-1.534-.637-4.291-2.334-5.9-1.08-1.38 1.08-.714 3.588-1.304 5.09-.907 2.281-2.328 4.448-3.466 6.61z" opacity=".1"/>
            <circle cx="136" cy="84" r="15" fill="#FBBEBE"/>
            <path fill="#F2F2F2" d="M141.126 122.368c-2.835 1.023-5.762 1.905-8.775 2.013a28.941 28.941 0 0 1-6.71-.72 84.962 84.962 0 0 1-13.356-3.825c-.928 1.834-1.175 3.928-1.256 5.984-.232 6.217 1.002 12.385 1.477 18.59.598 7.889 0 15.95 2.02 23.59a6.506 6.506 0 0 1 1.445-3.538 8 8 0 0 1 2.42-1.786 19.231 19.231 0 0 1 13.249-1.655c2.593.616 5.347 1.769 7.805.735 1.466-.622 2.528-1.931 3.342-3.305a27.236 27.236 0 0 0 2.92-7.948c1.618-7.164 1.833-14.57 2.028-21.918.053-1.964.894-7.802-.728-9.241-1.137-1-1.472.427-2.29 1.174a10.458 10.458 0 0 1-3.59 1.85z"/>
            <path fill="#0DC4D0" d="M120.948 95.492c-1.021-.788-2.534-.543-3.66.125-1.126.668-2.037 1.592-3.18 2.2-3.169 1.69-7.425.452-10.433 2.419-2.827 1.852-3.313 5.667-3.534 9.003-.552 8.476-1.026 17.011-3.097 25.26-.552 2.173-1.214 4.4-1.004 6.639a17.39 17.39 0 0 0 .916 3.749l2.716 8.351c1.259 3.88 2.534 7.819 2.667 11.888.132 4.07-.84 7.938-1.806 11.823a136.644 136.644 0 0 0-3.715 23.315c-.171 2.602-.243 5.32.828 7.704 1.104 2.494 3.346 4.347 5.708 5.754 2.363 1.407 4.93 2.494 7.243 3.988 4.643 3.005 8.37 7.737 13.801 8.97 2.49.544 5.096.327 7.602-.151 0 0-1.419-63.419-5.366-72.476-3.947-9.057-7.447-48.292-7.447-49.585 0-1.293 1.761-8.976 1.761-8.976zM140.97 99s20.066 0 23.037 10.698-8.48 28.244-8.48 28.244 4.665 34.66 6.78 38.084c2.117 3.424 1.278 10.245 1.278 10.245a28.56 28.56 0 0 1 .844 14.559c-1.694 7.7-8.058 21.396-8.058 21.396s-8.48 0-10.602 5.133c-2.121 5.133-2.543-22.253-2.543-22.253s-7.631-50.066-7.21-53.058c.423-2.993 2.544-27.818 3.394-34.666.85-6.848 2.699-15.815 1.56-18.382z"/>
            <path fill="#0DC4D0" d="M156.447 105s9.553 3.015 9.553 6.464c0 3.45 2.924 21.983 2.924 28.017 0 6.035-1.245 6.899 0 9.055 1.245 2.157-13.282 1.293-13.282 1.293L153 125.261 156.447 105z"/>
            <path fill="#A0616A" d="M98.72 135.859s19.392 1.247 22.84-1.253c3.447-2.5 18.093 3.328 19.385 6.657 1.292 3.328-20.683 3.742-24.125 3.742S97 150 97 150l1.72-14.141z"/>
            <path fill="#3F3D56" d="M57.705 335.891s-9.054 22.924-4.35 25.653c4.703 2.728 54.3.785 54.3.785s8.26-5.13-1.18-8.689c0 0-7.874-.392-12.985-3.553-5.111-3.16-11.022-9.082-11.022-9.082s-.392-8.689-3.54-6.713a8.113 8.113 0 0 0-3.54 5.53l-17.683-3.93z"/>
            <path fill="#000" d="M57.705 335.891s-9.054 22.924-4.35 25.653c4.703 2.728 54.3.785 54.3.785s8.26-5.13-1.18-8.689c0 0-7.874-.392-12.985-3.553-5.111-3.16-11.022-9.082-11.022-9.082s-.392-8.689-3.54-6.713a8.113 8.113 0 0 0-3.54 5.53l-17.683-3.93z" opacity=".1"/>
            <path fill="#3F3D56" d="M44.27 343.077s-9.967 25.232-4.768 28.293c5.2 3.06 59.811.872 59.811.872s9.104-5.655-1.3-9.577c0 0-8.667-.433-14.303-3.916-5.635-3.484-12.134-10.027-12.134-10.027s-.432-9.578-3.9-7.4a8.933 8.933 0 0 0-3.899 6.094l-19.507-4.339z"/>
            <path fill="#3C354C" d="M95 184.738l-6.143 54.207s-2.211 25.813-8.775 31.402c0 0 0 8.174-2.211 10.754l-3.074 33.988s4.39 12.467 3.953 14.635c-.437 2.169 1.753 9.031 1.316 9.893-.437.862-21.066 0-21.066 0l4.39-69.26L76.992 174 95 184.738z"/>
            <path fill="#000" d="M95 184.738l-6.143 54.207s-2.211 25.813-8.775 31.402c0 0 0 8.174-2.211 10.754l-3.074 33.988s4.39 12.467 3.953 14.635c-.437 2.169 1.753 9.031 1.316 9.893-.437.862-21.066 0-21.066 0l4.39-69.26L76.992 174 95 184.738z" opacity=".1"/>
            <path fill="#3C354C" d="M85 183.182s-4.746 44.22-6.904 53.665a121.343 121.343 0 0 0-2.587 18.891s-.43 13.741-4.317 17.604a11.564 11.564 0 0 0-3.446 8.574s-3.887 43.36-1.729 48.515c2.158 5.156 4.316 9.446 2.175 12.875-2.142 3.43-25.887 3.436-25.887.86 0-2.575 0-4.722-1.294-6.01-1.294-1.287 0-9.445 0-9.445s-5.175-38.21-.43-49.37c4.746-11.16 6.904-41.655 6.904-41.655s-3.451-34.774-7.768-40.357c-4.316-5.583.865-25.329.865-25.329L85 183.182z"/>
            <path fill="#A0616A" d="M72 45.26c.51 1.127 1.737 1.756 2.852 2.352C81.315 51.06 86.724 56.059 92.05 61a18.982 18.982 0 0 1 .805-13.227c.632-1.423 1.47-2.96 1.015-4.447-.338-1.074-1.298-1.89-2.219-2.588a69.275 69.275 0 0 0-6.807-4.495c-1.665-.956-5.038-3.496-6.93-3.222-.1 2.475-.15 4.688-1.27 6.981-.278.57-4.45 5.687-4.644 5.258z"/>
            <circle cx="94" cy="34" r="18" fill="#A0616A"/>
            <path fill="#3F3D56" d="M95.795 75.467s3.01-15.087-5.598-20.257a3909.814 3909.814 0 0 1-18.51-11.204s-3.015-.434-4.306 6.034c0 0-24.536 4.74-27.123 28.012-2.588 23.271 1.725 57.322 1.725 57.322s-3.873 29.74-8.609 45.684c0 0-3.879 3.449 13.344-1.721C63.942 174.167 94.07 194 94.07 194s3.016-3.02 3.016-5.176 3.444-14.663 3.444-14.663 3.011-53.01 4.302-59.044c1.291-6.033-5.164-38.787-9.037-39.65z"/>
            <path fill="#0DC4D0" d="M69.305 105S93.137 91.344 88.37 73.85c-4.767-17.495-15.165-23.038-15.165-23.038S56.302 45.263 42 63.177l.868 8.108S58.47 40.14 75.372 59.763C92.274 79.387 69.305 105 69.305 105z"/>
            <path fill="#0DC4D0" d="M43 64.208v70.522l-4.441 24.057L36.483 170H21.292L0 162.256v-52.027s17.814-34.841 23.466-41.29C29.118 62.489 43 64.208 43 64.208z"/>
            <path fill="#000" d="M38 159l-2.04 11H20.975L0 162.408z" opacity=".1"/>
            <path fill="#0DC4D0" d="M38 143.406L75 98l-32.701 47.14-3.442.86z"/>
            <path fill="#3F3D56" d="M90.141 35.696c.995-.677 2.242-.802 3.436-.92 1.194-.12 2.441-.282 3.393-1.019 1.65-1.277 1.774-3.747 2.984-5.452 1.747-2.475 5.237-2.772 8.253-2.653 1.844.076 3.828.19 5.377-.812 1.548-1.002 2.312-2.978 2.85-4.803.64-2.166 1.048-4.808-.538-6.411-1.076-1.115-2.818-1.337-4.033-2.317-1.215-.98-1.78-2.664-2.462-4.132a11.173 11.173 0 0 0-3.576-4.51c-2.29-1.624-5.215-1.96-8.006-1.933-2.79.027-5.591.4-8.36.054-2.27-.281-4.533-1.04-6.791-.704-2.882.428-5.264 2.62-6.689 5.182-1.425 2.561-2.027 5.485-2.618 8.355l-1.613 7.813c-.495 2.426-.995 4.91-.613 7.353.796 5.068 5.247 9.096 5.554 14.213a8.707 8.707 0 0 1 5.29-6.33 1.662 1.662 0 0 1 1.076-.135c.44.146.699.59.979.964.73.98 3.027 2.463 4.3 1.77 1.216-.622.345-2.572 1.807-3.573z"/>
            <path fill="#3C354C" d="M203.092 254.102s-11.611.428-13.329 13.782c-1.717 13.353 0 75.385 0 75.385s13.33 9.907 29.67 8.615c16.342-1.292 42.567-6.03 42.567-6.03v-72.738c0-10.856-9.038-19.71-19.863-19.085a7.01 7.01 0 0 0-.775.06l-38.27.01z"/>
            <circle cx="219.5" cy="353.5" r="7.5" fill="#3F3D56"/>
            <circle cx="261.5" cy="350.5" r="7.5" fill="#3F3D56"/>
            <path fill="#A0616A" d="M45.32 116.483s-3.016 19.144 9.467 17.405c0 0 6.461-.872 7.324 0 .862.872 32.718-4.787 37.025-9.574 0 0 5.165-1.738 7.747.872 2.583 2.61 28.417 5.22 20.675-2.616-7.741-7.836-19.801-9.574-19.801-9.574l-16.362.866s-8.61 2.616-13.774 0c-5.165-2.616-19.818-1.71-19.818-1.71l-12.483 4.331z"/>
            <path fill="#3F3D56" d="M62.917 56S44 58.174 44 86.198V122s10.51-4.746 12.613-4.316c2.103.43 10.51-5.61 10.51-5.61s9.667-23.289 8.825-29.758C75.106 75.847 75.53 56.86 62.917 56zM151.477 126L132 139.715 144.12 141 161 126.859z"/>
            <path fill="#FBBEBE" d="M167.273 146.394s4.883 14.677-1.773 18.983c-6.656 4.305-17.758-15.102-17.758-15.102s-11.987-13.802-3.994-16.824c7.993-3.022 11.254 10.138 11.254 10.138l10.481 8.844 1.79-6.039z"/>
            <ellipse cx="137.5" cy="73" fill="#3F3D56" rx="17.5" ry="11"/>
            <circle cx="140.5" cy="46.5" r="12.5" fill="#3F3D56"/>
            <ellipse cx="94.5" cy="23.5" fill="#3F3D56" rx="16.5" ry="8.5"/>
            <ellipse cx="78.5" cy="24.5" fill="#3F3D56" rx="5.5" ry="14.5"/>
        </g>
    </g>
</svg>
